<svg width="245" height="355" viewBox="0 0 245 355" fill="none" xmlns="http://www.w3.org/2000/svg">
<mask id="mask0_1203_108" style="mask-type:luminance" maskUnits="userSpaceOnUse" x="27" y="0" width="191" height="191">
<path d="M27.1934 0H217.86V190.625H27.1934V0Z" fill="white"/>
</mask>
<g mask="url(#mask0_1203_108)">
<path d="M122.564 190.104C116.59 190.104 111.751 185.265 111.751 179.291C111.751 173.322 116.59 168.484 122.564 168.484C163.038 168.484 195.965 135.551 195.965 95.0827C195.965 54.6087 163.033 21.6764 122.564 21.6764C82.0898 21.6764 49.1628 54.6035 49.1628 95.0775C49.1628 101.051 44.319 105.89 38.3503 105.89C32.3815 105.89 27.543 101.051 27.543 95.0775C27.543 42.6816 70.1628 0.0566406 122.564 0.0566406C174.96 0.0566406 217.59 42.6816 217.59 95.0775C217.59 147.473 174.96 190.104 122.564 190.104Z" fill="#0B1A33"/>
</g>
<mask id="mask1_1203_108" style="mask-type:luminance" maskUnits="userSpaceOnUse" x="0" y="109" width="245" height="247">
<path d="M0 109.293H245V355.001H0V109.293Z" fill="white"/>
</mask>
<g mask="url(#mask1_1203_108)">
<path d="M245.093 232.346C245.093 234.351 245.046 236.356 244.947 238.356C244.848 240.361 244.697 242.361 244.505 244.356C244.307 246.351 244.062 248.34 243.765 250.325C243.473 252.309 243.13 254.283 242.739 256.252C242.348 258.215 241.906 260.174 241.421 262.122C240.932 264.064 240.4 265.997 239.817 267.913C239.234 269.835 238.604 271.736 237.932 273.627C237.255 275.512 236.531 277.387 235.765 279.236C234.999 281.09 234.187 282.924 233.327 284.736C232.473 286.549 231.567 288.34 230.624 290.106C229.676 291.877 228.692 293.622 227.661 295.341C226.63 297.059 225.557 298.757 224.442 300.424C223.327 302.091 222.176 303.731 220.979 305.341C219.786 306.95 218.551 308.528 217.281 310.08C216.005 311.632 214.697 313.148 213.348 314.632C212.005 316.122 210.619 317.575 209.202 318.992C207.786 320.408 206.333 321.788 204.848 323.137C203.364 324.486 201.843 325.794 200.296 327.064C198.744 328.341 197.161 329.57 195.551 330.768C193.942 331.96 192.301 333.117 190.635 334.231C188.968 335.346 187.275 336.413 185.557 337.445C183.833 338.476 182.088 339.466 180.322 340.413C178.551 341.356 176.76 342.257 174.947 343.117C173.135 343.971 171.301 344.783 169.452 345.554C167.598 346.32 165.729 347.044 163.838 347.716C161.952 348.393 160.046 349.023 158.13 349.601C156.208 350.184 154.275 350.721 152.333 351.205C150.385 351.695 148.432 352.132 146.463 352.523C144.499 352.919 142.52 353.257 140.541 353.554C138.557 353.846 136.567 354.096 134.572 354.288C132.572 354.486 130.572 354.632 128.572 354.731C126.567 354.83 124.567 354.882 122.562 354.882C120.557 354.882 118.551 354.83 116.546 354.731C114.546 354.632 112.546 354.486 110.551 354.288C108.551 354.096 106.562 353.846 104.577 353.554C102.598 353.257 100.619 352.919 98.6556 352.523C96.6869 352.132 94.7337 351.695 92.7858 351.205C90.8431 350.721 88.9108 350.184 86.9889 349.601C85.0723 349.023 83.166 348.393 81.2806 347.716C79.39 347.044 77.5202 346.32 75.666 345.554C73.8171 344.783 71.9837 343.971 70.1712 343.117C68.3587 342.257 66.5671 341.356 64.7962 340.413C63.0306 339.466 61.2858 338.476 59.5671 337.445C57.8431 336.413 56.1504 335.346 54.4837 334.231C52.8171 333.117 51.1764 331.96 49.5671 330.768C47.9577 329.57 46.3744 328.341 44.8275 327.064C43.2754 325.794 41.7546 324.486 40.2702 323.137C38.7858 321.788 37.3327 320.408 35.916 318.992C34.4993 317.575 33.1139 316.122 31.7702 314.632C30.4212 313.148 29.1139 311.632 27.8379 310.08C26.5671 308.528 25.3327 306.95 24.14 305.341C22.9473 303.731 21.791 302.091 20.6764 300.424C19.5619 298.757 18.4889 297.059 17.4577 295.341C16.4264 293.622 15.4421 291.877 14.4941 290.106C13.5514 288.34 12.6452 286.549 11.791 284.736C10.9316 282.924 10.1191 281.09 9.35352 279.236C8.58789 277.387 7.86393 275.512 7.18685 273.627C6.51497 271.736 5.88477 269.835 5.30143 267.913C4.7181 265.997 4.18685 264.064 3.69727 262.122C3.21289 260.174 2.77018 258.215 2.37956 256.252C1.98893 254.283 1.64518 252.309 1.35352 250.325C1.05664 248.34 0.81185 246.351 0.613932 244.356C0.421224 242.361 0.270183 240.361 0.171224 238.356C0.0774733 236.356 0.0253906 234.351 0.0253906 232.346C0.0253906 230.34 0.0774733 228.335 0.171224 226.335C0.270183 224.33 0.421224 222.33 0.613932 220.335C0.81185 218.34 1.05664 216.351 1.35352 214.367C1.64518 212.382 1.98893 210.408 2.37956 208.439C2.77018 206.476 3.21289 204.518 3.69727 202.575C4.18685 200.627 4.7181 198.695 5.30143 196.778C5.88477 194.856 6.51497 192.955 7.18685 191.064C7.86393 189.179 8.58789 187.309 9.35352 185.455C10.1191 183.601 10.9316 181.768 11.791 179.955C12.6452 178.143 13.5514 176.351 14.4941 174.585C15.4421 172.814 16.4264 171.07 17.4577 169.351C18.4889 167.632 19.5619 165.939 20.6764 164.268C21.791 162.601 22.9473 160.965 24.14 159.351C25.3327 157.742 26.5671 156.163 27.8379 154.611C29.1139 153.059 30.4212 151.544 31.7702 150.059C33.1139 148.57 34.4993 147.122 35.916 145.7C37.3327 144.283 38.7858 142.903 40.2702 141.554C41.7546 140.21 43.2754 138.898 44.8275 137.627C46.3744 136.356 47.9577 135.122 49.5671 133.924C51.1764 132.731 52.8171 131.575 54.4837 130.465C56.1504 129.351 57.8431 128.278 59.5671 127.247C61.2858 126.215 63.0306 125.226 64.7962 124.283C66.5671 123.335 68.3587 122.434 70.1712 121.575C71.9837 120.721 73.8171 119.908 75.666 119.137C77.5202 118.372 79.39 117.653 81.2806 116.976C83.166 116.299 85.0723 115.669 86.9889 115.09C88.9108 114.507 90.8431 113.971 92.7858 113.486C94.7337 112.997 96.6869 112.559 98.6556 112.169C100.619 111.778 102.598 111.434 104.577 111.137C106.562 110.846 108.551 110.601 110.551 110.403C112.546 110.205 114.546 110.059 116.546 109.96C118.551 109.861 120.557 109.814 122.562 109.814C124.567 109.814 126.567 109.861 128.572 109.96C130.572 110.059 132.572 110.205 134.572 110.403C136.567 110.601 138.557 110.846 140.541 111.137C142.52 111.434 144.499 111.778 146.463 112.169C148.432 112.559 150.385 112.997 152.333 113.486C154.275 113.971 156.208 114.507 158.13 115.09C160.046 115.669 161.952 116.299 163.838 116.976C165.729 117.653 167.598 118.372 169.452 119.137C171.301 119.908 173.135 120.721 174.947 121.575C176.76 122.434 178.551 123.335 180.322 124.283C182.088 125.226 183.833 126.215 185.557 127.247C187.275 128.278 188.968 129.351 190.635 130.465C192.301 131.575 193.942 132.731 195.551 133.924C197.161 135.122 198.744 136.356 200.296 137.627C201.843 138.898 203.364 140.21 204.848 141.554C206.333 142.903 207.786 144.283 209.202 145.7C210.619 147.122 212.005 148.57 213.348 150.059C214.697 151.544 216.005 153.059 217.281 154.611C218.551 156.163 219.786 157.742 220.979 159.351C222.176 160.965 223.327 162.601 224.442 164.268C225.557 165.939 226.63 167.632 227.661 169.351C228.692 171.07 229.676 172.814 230.624 174.585C231.567 176.351 232.473 178.143 233.327 179.955C234.187 181.768 234.999 183.601 235.765 185.455C236.531 187.309 237.255 189.179 237.932 191.064C238.604 192.955 239.234 194.856 239.817 196.778C240.4 198.695 240.932 200.627 241.421 202.575C241.906 204.518 242.348 206.476 242.739 208.439C243.13 210.408 243.473 212.382 243.765 214.367C244.062 216.351 244.307 218.34 244.505 220.335C244.697 222.33 244.848 224.33 244.947 226.335C245.046 228.335 245.093 230.34 245.093 232.346Z" fill="#FBCA6F"/>
</g>
<path d="M214.459 232.345C214.459 233.85 214.423 235.355 214.35 236.855C214.277 238.361 214.167 239.855 214.016 241.355C213.87 242.85 213.688 244.345 213.464 245.829C213.245 247.319 212.99 248.798 212.693 250.277C212.402 251.751 212.074 253.215 211.704 254.678C211.339 256.137 210.938 257.585 210.501 259.022C210.068 260.465 209.594 261.892 209.089 263.309C208.584 264.72 208.042 266.126 207.464 267.517C206.891 268.902 206.282 270.277 205.636 271.637C204.995 272.996 204.318 274.34 203.61 275.668C202.902 276.996 202.157 278.303 201.386 279.59C200.61 280.882 199.808 282.152 198.975 283.402C198.136 284.652 197.271 285.882 196.376 287.09C195.48 288.298 194.553 289.486 193.6 290.647C192.646 291.809 191.662 292.949 190.652 294.064C189.646 295.178 188.605 296.267 187.542 297.329C186.48 298.392 185.391 299.428 184.277 300.439C183.162 301.449 182.027 302.428 180.86 303.387C179.699 304.34 178.516 305.262 177.308 306.158C176.1 307.053 174.87 307.923 173.62 308.757C172.365 309.595 171.1 310.397 169.808 311.168C168.516 311.944 167.209 312.684 165.881 313.392C164.558 314.1 163.214 314.777 161.855 315.423C160.495 316.064 159.12 316.673 157.73 317.251C156.339 317.824 154.938 318.366 153.521 318.871C152.105 319.382 150.678 319.85 149.24 320.288C147.798 320.725 146.35 321.126 144.891 321.491C143.433 321.855 141.964 322.184 140.49 322.48C139.016 322.772 137.532 323.027 136.048 323.251C134.558 323.47 133.068 323.658 131.568 323.803C130.074 323.949 128.574 324.059 127.074 324.137C125.568 324.21 124.068 324.246 122.563 324.246C121.058 324.246 119.553 324.21 118.053 324.137C116.553 324.059 115.053 323.949 113.553 323.803C112.058 323.658 110.563 323.47 109.079 323.251C107.589 323.027 106.11 322.772 104.636 322.48C103.157 322.184 101.693 321.855 100.235 321.491C98.7715 321.126 97.3236 320.725 95.8861 320.288C94.4486 319.85 93.0163 319.382 91.6048 318.871C90.1882 318.366 88.7819 317.824 87.3965 317.251C86.0059 316.673 84.6309 316.064 83.2715 315.423C81.9121 314.777 80.5684 314.1 79.2402 313.392C77.9173 312.684 76.6048 311.944 75.3184 311.168C74.0267 310.397 72.7559 309.595 71.5059 308.757C70.2559 307.923 69.0267 307.053 67.8184 306.158C66.61 305.262 65.4225 304.34 64.2611 303.387C63.0996 302.428 61.959 301.449 60.8496 300.439C59.735 299.428 58.6413 298.392 57.5788 297.329C56.5163 296.267 55.4798 295.178 54.4694 294.064C53.459 292.949 52.4798 291.809 51.5215 290.647C50.5684 289.486 49.6465 288.298 48.7507 287.09C47.8548 285.882 46.985 284.652 46.1517 283.402C45.3184 282.152 44.5111 280.882 43.7402 279.59C42.9642 278.303 42.2246 276.996 41.5163 275.668C40.8079 274.34 40.1309 272.996 39.485 271.637C38.8444 270.277 38.235 268.902 37.6569 267.517C37.084 266.126 36.5423 264.72 36.0371 263.309C35.5319 261.892 35.0579 260.465 34.6204 259.022C34.1829 257.585 33.7819 256.137 33.4173 254.678C33.0527 253.215 32.7246 251.751 32.4277 250.277C32.1361 248.798 31.8809 247.319 31.6569 245.829C31.4382 244.345 31.2559 242.85 31.1048 241.355C30.959 239.855 30.8496 238.361 30.7767 236.855C30.6986 235.355 30.6621 233.85 30.6621 232.345C30.6621 230.845 30.6986 229.34 30.7767 227.84C30.8496 226.335 30.959 224.835 31.1048 223.34C31.2559 221.845 31.4382 220.35 31.6569 218.861C31.8809 217.376 32.1361 215.892 32.4277 214.418C32.7246 212.944 33.0527 211.475 33.4173 210.017C33.7819 208.559 34.1829 207.111 34.6204 205.668C35.0579 204.23 35.5319 202.803 36.0371 201.387C36.5423 199.97 37.084 198.569 37.6569 197.178C38.235 195.788 38.8444 194.413 39.485 193.053C40.1309 191.694 40.8079 190.35 41.5163 189.027C42.2246 187.699 42.9642 186.392 43.7402 185.1C44.5111 183.814 45.3184 182.543 46.1517 181.293C46.985 180.043 47.8548 178.809 48.7507 177.605C49.6465 176.397 50.5684 175.21 51.5215 174.048C52.4798 172.887 53.459 171.746 54.4694 170.632C55.4798 169.517 56.5163 168.428 57.5788 167.366C58.6413 166.303 59.735 165.267 60.8496 164.257C61.959 163.246 63.0996 162.262 64.2611 161.309C65.4225 160.355 66.61 159.428 67.8184 158.533C69.0267 157.637 70.2559 156.772 71.5059 155.939C72.7559 155.1 74.0267 154.298 75.3184 153.522C76.6048 152.751 77.9173 152.007 79.2402 151.298C80.5684 150.59 81.9121 149.913 83.2715 149.272C84.6309 148.632 86.0059 148.022 87.3965 147.444C88.7819 146.871 90.1882 146.329 91.6048 145.819C93.0163 145.314 94.4486 144.845 95.8861 144.408C97.3236 143.97 98.7715 143.569 100.235 143.204C101.693 142.84 103.157 142.507 104.636 142.215C106.11 141.923 107.589 141.663 109.079 141.444C110.563 141.225 112.058 141.038 113.553 140.892C115.053 140.746 116.553 140.632 118.053 140.559C119.553 140.486 121.058 140.449 122.563 140.449C124.068 140.449 125.568 140.486 127.074 140.559C128.574 140.632 130.074 140.746 131.568 140.892C133.068 141.038 134.558 141.225 136.048 141.444C137.532 141.663 139.016 141.923 140.49 142.215C141.964 142.507 143.433 142.84 144.891 143.204C146.35 143.569 147.798 143.97 149.24 144.408C150.678 144.845 152.105 145.314 153.521 145.819C154.938 146.329 156.339 146.871 157.73 147.444C159.12 148.022 160.495 148.632 161.855 149.272C163.214 149.913 164.558 150.59 165.881 151.298C167.209 152.007 168.516 152.751 169.808 153.522C171.1 154.298 172.365 155.1 173.62 155.939C174.87 156.772 176.1 157.637 177.308 158.533C178.516 159.428 179.699 160.355 180.86 161.309C182.027 162.262 183.162 163.246 184.277 164.257C185.391 165.267 186.48 166.303 187.542 167.366C188.605 168.428 189.646 169.517 190.652 170.632C191.662 171.746 192.646 172.887 193.6 174.048C194.553 175.21 195.48 176.397 196.376 177.605C197.271 178.814 198.136 180.043 198.975 181.293C199.808 182.543 200.61 183.814 201.386 185.1C202.157 186.392 202.902 187.699 203.61 189.027C204.318 190.35 204.995 191.694 205.636 193.053C206.282 194.413 206.891 195.788 207.464 197.178C208.042 198.569 208.584 199.97 209.089 201.387C209.594 202.803 210.068 204.23 210.501 205.668C210.938 207.111 211.339 208.559 211.704 210.017C212.074 211.475 212.402 212.944 212.693 214.418C212.99 215.892 213.245 217.376 213.464 218.861C213.688 220.35 213.87 221.845 214.016 223.34C214.167 224.835 214.277 226.335 214.35 227.84C214.423 229.34 214.459 230.845 214.459 232.345Z" fill="#F8B858"/>
<path d="M148.438 213.781C148.438 199.49 136.854 187.906 122.563 187.906C108.266 187.906 96.6875 199.49 96.6875 213.781C96.6875 224.266 102.927 233.266 111.891 237.333C111.547 238.432 111.323 239.573 111.323 240.781V264.969C111.323 271.495 116.609 276.781 123.125 276.781C129.651 276.781 134.938 271.495 134.938 264.969V240.781C134.938 239.401 134.656 238.094 134.219 236.859C142.651 232.594 148.438 223.875 148.438 213.781Z" fill="#0B1A33"/>
</svg>
